<svg width="70" height="70" viewBox="0 0 70 70" fill="none" xmlns="http://www.w3.org/2000/svg">
<path d="M49.6678 27.0813C53.2452 27.0813 56.0243 25.1287 56.0243 22.6142C56.0243 20.0996 53.1861 18.1175 49.6678 18.1175C46.1496 18.1175 43.3113 20.0996 43.3113 22.6142C43.3113 25.1287 46.0609 27.0813 49.6678 27.0813ZM49.6678 20.3067C52.1217 20.3067 53.8365 21.5196 53.8365 22.6142C53.8365 23.7087 52.1217 24.8921 49.6678 24.8921C47.2139 24.8921 45.5287 23.6792 45.5287 22.6142C45.5287 21.5492 47.1843 20.3067 49.6678 20.3067ZM20.1026 13.1179C16.5548 13.1179 13.7461 15.0704 13.7461 17.6146C13.7461 20.1588 16.5843 22.0817 20.1026 22.0817C23.6209 22.0817 26.4887 20.1292 26.4887 17.5258C26.4887 14.9225 23.7096 13.1179 20.1026 13.1179ZM20.1026 19.8925C17.6783 19.8925 15.9635 18.6796 15.9635 17.6146C15.9635 16.5496 17.6783 15.3071 20.1026 15.3071C22.527 15.3071 24.2713 16.52 24.2713 17.6146C24.2713 18.7092 22.5565 19.8925 20.1026 19.8925ZM49.6678 13.0883C41.7148 13.0883 35.5061 17.2596 35.5061 22.6142V29.8029L34.2939 29.3592V17.5258C34.2939 12.1713 28.0852 8 20.1322 8C12.1791 8 6 12.26 6 17.5258V32.3175C6 36.2817 9.42957 39.595 14.4557 41.1925V53.0258C14.4557 58.3804 20.6644 62.5517 28.5878 62.5517C36.5113 62.5517 42.7496 58.3804 42.7496 53.0258V45.7483C44.9591 46.5422 47.2906 46.9427 49.6383 46.9317C57.5617 46.9317 63.7704 42.7308 63.7704 37.4058V22.6142C63.7704 17.2596 57.5617 13.0883 49.6383 13.0883H49.6678ZM49.6678 15.3071C56.113 15.3071 61.4939 18.65 61.4939 22.6142C61.4939 26.5783 56.0243 29.9213 49.6678 29.9213C43.3113 29.9213 37.8417 26.5783 37.8417 22.6142C37.8417 18.65 43.3409 15.3071 49.6678 15.3071ZM20.1026 10.3075C26.5774 10.3075 31.9287 13.6504 31.9287 17.6146C31.9287 21.5788 26.607 24.9217 20.1026 24.9217C13.5983 24.9217 8.27652 21.5788 8.27652 17.5258C8.27652 13.4729 13.6574 10.3075 20.1026 10.3075ZM14.4261 38.7963C10.76 37.5242 8.27652 35.0983 8.27652 32.3175V22.7621C11.49 25.7173 15.7414 27.2806 20.1026 27.1108C24.4639 27.2806 28.7152 25.7173 31.9287 22.7621V28.9154C30.7733 28.7423 29.608 28.6435 28.44 28.6196C20.5165 28.6196 14.3078 32.8204 14.3078 38.1454C14.2931 38.3621 14.2931 38.5796 14.3078 38.7963H14.4261ZM40.5322 53.0258C40.5322 56.99 35.0626 60.3329 28.7061 60.3329C22.3496 60.3329 16.88 56.99 16.88 53.0258V43.2929C20.0888 46.2589 24.3407 47.8331 28.7061 47.6713C32.6354 47.7633 36.4804 46.5226 39.6157 44.1508C39.9427 43.8781 40.249 43.5815 40.5322 43.2633V53.0258ZM39.4383 41.1925C38.9799 41.8041 38.4317 42.3427 37.8122 42.79C35.0976 44.6404 31.8714 45.5923 28.5878 45.5117C24.8441 45.6491 21.1879 44.3591 18.3583 41.9025C17.6652 41.2293 17.1475 40.3964 16.8504 39.4767C16.7219 39.0645 16.6523 38.6362 16.6435 38.2046C16.6435 34.2404 22.113 30.8975 28.4696 30.8975C29.6399 30.9004 30.8076 31.0093 31.9583 31.2229C32.7096 31.3711 33.4503 31.5688 34.1757 31.8146L35.3583 32.2879C36.1398 32.6212 36.8833 33.0378 37.5757 33.5304C38.4117 34.0095 39.1182 34.6858 39.6334 35.5005C40.1487 36.3151 40.4572 37.2434 40.5322 38.2046C40.5068 39.294 40.1222 40.3445 39.4383 41.1925ZM61.4939 37.4058C61.4939 41.37 56.0243 44.7129 49.6678 44.7129C47.299 44.7435 44.9509 44.2695 42.7791 43.3225V38.2342C42.7059 36.665 42.2078 35.1452 41.3381 33.8373C40.4684 32.5294 39.2599 31.4826 37.8417 30.8088V27.8504C41.0552 30.8056 45.3066 32.369 49.6678 32.1992C54.0281 32.3625 58.277 30.8001 61.4939 27.8504V37.4946V37.4058ZM24.2417 41.5179C25.5275 42.2846 27.0027 42.6741 28.4991 42.6421C32.0765 42.6421 34.8557 40.66 34.8557 38.1454C34.845 37.6138 34.7207 37.0906 34.4912 36.6109C34.2618 36.1313 33.9324 35.7063 33.5252 35.3646C32.964 34.8609 32.3117 34.4693 31.6035 34.2108C30.6122 33.8336 29.5597 33.6431 28.4991 33.6488C24.9513 33.6488 22.1426 35.6308 22.1426 38.1454C22.1454 38.6369 22.2564 39.1218 22.4678 39.5654C22.8847 40.3844 23.5323 41.0631 24.3304 41.5179H24.2417ZM28.4991 35.8675C29.098 35.8715 29.694 35.951 30.273 36.1042C31.0374 36.2728 31.7299 36.6762 32.2539 37.2579C32.4906 37.4967 32.6369 37.8105 32.6678 38.1454C32.6678 39.24 30.953 40.4233 28.4991 40.4233H27.8191C26.7103 40.355 25.6621 39.8935 24.8626 39.1217C24.6131 38.8677 24.4658 38.5307 24.4487 38.175C24.4487 37.11 26.1339 35.8971 28.5878 35.8971L28.4991 35.8675Z" fill="#783CBD"/>
</svg>
