<svg width="70" height="70" viewBox="0 0 70 70" fill="none" xmlns="http://www.w3.org/2000/svg">
<path d="M56.0112 25.7917H41.9241H41.5667V16.9167C41.483 15.3233 40.7881 13.8223 39.625 12.7219C38.4618 11.6216 36.9186 11.0054 35.3123 11H19.9147C18.9041 11.002 17.9071 11.232 16.999 11.6728C16.091 12.1135 15.2956 12.7534 14.673 13.5442L9.90777 19.875L9.72907 20.0525C9.16265 20.6377 8.71841 21.3285 8.42194 22.085C8.12548 22.8415 7.98265 23.6488 8.00168 24.4604L8.21016 37.2108C8.19436 38.0267 8.34054 38.8377 8.64035 39.5974C8.94015 40.3572 9.3877 41.0508 9.95744 41.6387C10.5272 42.2266 11.2079 42.6973 11.9608 43.0238C12.7137 43.3503 13.524 43.5263 14.3454 43.5417H29.2367H29.5345V52.8604C29.6477 54.3566 30.329 55.7542 31.4404 56.7702C32.5518 57.7863 34.0104 58.3451 35.5208 58.3333H51.1865C52.5754 58.3126 53.9133 57.8103 54.9689 56.9133C55.2295 56.6892 55.4688 56.4416 55.6836 56.1738L61.0445 50.4346C62.293 48.96 62.9784 47.0955 62.9804 45.1688V33.0396C63.0204 31.1614 62.3094 29.3441 61.0031 27.9856C59.6969 26.6271 57.9019 25.8382 56.0112 25.7917ZM29.7728 20.5258C30.429 20.6059 31.0516 20.8596 31.5755 21.2603C32.0994 21.6609 32.5054 22.194 32.751 22.8038L24.1141 31.3829H18.8425L29.7728 20.5258ZM15.7452 31.3829H10.5034L21.4039 20.5554H26.7052L15.7452 31.3829ZM33.1382 25.4663V31.3829H27.1817L33.1382 25.4663ZM32.8106 36.6192C33.4776 35.9607 34.3723 35.5798 35.3123 35.5542L51.2162 35.4063C51.6749 35.4025 52.1296 35.4896 52.5541 35.6622C52.9785 35.8349 53.364 36.0898 53.6882 36.4121C54.0222 36.7285 54.287 37.1098 54.4664 37.5322C54.6457 37.9546 54.7356 38.4091 54.7306 38.8675V52.535C54.7301 53.2164 54.5338 53.8835 54.1647 54.4579L53.3904 55.375C52.7773 55.8975 51.9942 56.1814 51.1865 56.1738H35.5208C34.6097 56.1738 33.7354 55.8163 33.0884 55.1791C32.4413 54.5419 32.0739 53.6767 32.066 52.7717L31.8278 39.2521C31.8057 38.7791 31.8815 38.3067 32.0505 37.864C32.2196 37.4213 32.4783 37.0178 32.8106 36.6783V36.6192ZM57.0834 51.4108V38.8675C57.0294 37.3345 56.378 35.8822 55.2668 34.817C54.1555 33.7518 52.6712 33.157 51.1269 33.1579H35.4017L37.7545 30.1996C38.2385 29.5738 38.8609 29.0669 39.5735 28.718C40.2862 28.3692 41.07 28.1879 41.8645 28.1879H55.9517C57.2234 28.1879 58.443 28.6897 59.3423 29.5829C60.2415 30.4762 60.7467 31.6876 60.7467 32.9508V45.08C60.741 46.4661 60.2456 47.8063 59.3469 48.8667L57.0834 51.4108ZM16.4897 14.9642C16.892 14.4408 17.4102 14.0165 18.0042 13.7241C18.5981 13.4317 19.2518 13.279 19.9147 13.2779H35.3123C36.3471 13.2779 37.3394 13.6862 38.0711 14.413C38.8028 15.1398 39.2139 16.1255 39.2139 17.1533V26.4721C37.9263 26.9518 36.7939 27.7698 35.9378 28.8388L35.5208 29.4008V24.2533C35.4973 22.6238 34.827 21.0694 33.6558 19.9282C32.4846 18.787 30.9071 18.1512 29.2665 18.1592H14.1071L16.4897 14.9642ZM10.2652 24.5492C10.2321 23.5312 10.607 22.5417 11.3075 21.7979C12.0395 21.0589 13.0338 20.6341 14.0773 20.6146H18.3362L10.3247 28.6021L10.2652 24.5492ZM29.2665 41.0863H14.3752C13.3636 41.0865 12.3921 40.6935 11.6685 39.9914C10.945 39.2892 10.5268 38.3337 10.5034 37.3292V33.7496H32.2745L31.2917 35.0217C30.7351 35.565 30.2951 36.2148 29.9982 36.9317C29.7013 37.6486 29.5537 38.4178 29.5643 39.1929V40.9975C29.4728 41.0484 29.3711 41.0787 29.2665 41.0863Z" fill="#783CBD"/>
<path d="M38.648 53.4815H48.1189C49.1992 53.4743 50.2345 53.0508 51.0068 52.3003C51.779 51.5498 52.2278 50.5308 52.2586 49.4581V42.2102C52.2586 41.1196 51.8225 40.0737 51.0461 39.3025C50.2698 38.5314 49.2168 38.0981 48.1189 38.0981H38.648C37.5501 38.0981 36.4971 38.5314 35.7207 39.3025C34.9444 40.0737 34.5082 41.1196 34.5082 42.2102V49.4581C34.5391 50.5308 34.9879 51.5498 35.7601 52.3003C36.5323 53.0508 37.5676 53.4743 38.648 53.4815ZM36.8313 42.2102C36.8313 41.7316 37.0227 41.2726 37.3634 40.9342C37.7041 40.5958 38.1662 40.4056 38.648 40.4056H48.1189C48.6007 40.4056 49.0628 40.5958 49.4035 40.9342C49.7442 41.2726 49.9356 41.7316 49.9356 42.2102V49.4581C49.9357 49.9395 49.7452 50.4016 49.4053 50.7447C49.0655 51.0879 48.6034 51.2845 48.1189 51.2923H38.648C38.4069 51.2923 38.1682 51.2447 37.9458 51.1522C37.7234 51.0596 37.5218 50.9241 37.3527 50.7533C37.1836 50.5826 37.0504 50.3802 36.9609 50.1578C36.8714 49.9354 36.8273 49.6976 36.8313 49.4581V42.2102Z" fill="#783CBD"/>
</svg>
