<svg width="137" height="70" viewBox="0 0 137 70" fill="none" xmlns="http://www.w3.org/2000/svg">
<path d="M126.9 42.7604C125.852 42.3137 124.853 41.7584 123.922 41.1038C123.188 40.6019 122.544 39.982 122.016 39.2696C121.584 38.6535 121.309 37.9431 121.212 37.1987C121.096 36.3983 121.147 35.5827 121.361 34.8025C121.442 34.6209 121.484 34.4244 121.484 34.2256C121.484 34.0269 121.442 33.8304 121.361 33.6487C121.276 33.5199 121.167 33.4091 121.039 33.3227C120.912 33.2364 120.768 33.1762 120.616 33.1458H120.199C119.267 33.0862 118.332 33.0862 117.4 33.1458V22.6142C117.4 17.2596 110.877 13.0883 102.508 13.0883C94.1394 13.0883 87.617 17.2596 87.617 22.6142V29.8029L86.3363 29.3592V17.5258C86.3363 12.2008 79.8139 8 71.445 8C63.0761 8 56.5537 12.2008 56.5537 17.5258V27.8504C56.1572 27.821 55.7589 27.821 55.3624 27.8504H26.5626C25.406 27.8399 24.2605 28.0745 23.2025 28.5388C22.1445 29.003 21.1984 29.6861 20.4274 30.5425C20.3447 30.6479 20.2839 30.7686 20.2487 30.8975C19.2166 28.0553 17.3146 25.6055 14.8095 23.8918C12.3043 22.178 9.32188 21.2864 6.28065 21.3421C6.12954 21.3381 5.97917 21.3643 5.8384 21.419C5.69764 21.4737 5.56934 21.5559 5.46107 21.6607C5.3528 21.7655 5.26677 21.8908 5.20804 22.0291C5.14931 22.1675 5.11908 22.3161 5.11913 22.4663C5.16152 25.4416 6.16581 28.3246 7.98377 30.6897C9.80172 33.0548 12.337 34.7767 15.2154 35.6012C12.9865 36.2503 10.9449 37.4164 9.25891 39.0033C7.91703 40.2566 6.8471 41.7691 6.11474 43.4478C5.38238 45.1266 5.00304 46.9362 5 48.7658C5.00777 49.0667 5.13356 49.3526 5.35055 49.5626C5.56755 49.7726 5.85856 49.8901 6.16152 49.89C8.56733 49.8909 10.9375 49.3127 13.0693 48.205C15.201 47.0973 17.0309 45.4931 18.4022 43.5296V46.1033C18.4568 48.1723 19.3329 50.1358 20.8393 51.5656C22.3457 52.9955 24.3603 53.7756 26.4435 53.7358H55.3028C56.3394 53.7634 57.3712 53.5878 58.3394 53.2191C59.3076 52.8503 60.1931 52.2957 60.9454 51.5869C61.6977 50.8781 62.3021 50.029 62.7239 49.0881C63.1457 48.1472 63.3767 47.133 63.4037 46.1033V40.4529C63.4182 40.3846 63.4182 40.3141 63.4037 40.2458V40.4529C64.063 40.7238 64.7395 40.9511 65.4289 41.1333V52.9667C65.4289 58.3212 71.9513 62.4925 80.3202 62.4925C88.6891 62.4925 95.2115 58.2917 95.2115 52.9667V45.7483C97.3588 46.4849 99.6112 46.8744 101.883 46.9021C101.547 48.1684 101.357 49.4686 101.317 50.7775C101.272 51.319 101.272 51.8631 101.317 52.4046C101.317 53.1738 101.555 54.3867 102.538 54.5346H132.202C132.349 54.5425 132.496 54.5211 132.635 54.4715C132.773 54.4219 132.901 54.3452 133.009 54.2459C133.117 54.1466 133.204 54.0268 133.265 53.8934C133.326 53.7601 133.359 53.6159 133.363 53.4696C134.614 48.6771 130.921 44.5946 126.9 42.7604ZM14.9176 44.1508C12.8955 46.0633 10.2823 47.2413 7.50174 47.4937C7.82645 44.7637 9.09796 42.2311 11.0979 40.3308C13.0979 38.4306 15.7016 37.2814 18.4617 37.0804C18.1647 39.7809 16.9081 42.2878 14.9176 44.1508ZM11.0161 30.5425C9.0595 28.7188 7.81475 26.2669 7.50174 23.62C10.2574 23.8198 12.8575 24.9648 14.8569 26.8591C16.8563 28.7533 18.1306 31.279 18.4617 34.0037C15.6652 33.779 13.0337 32.5975 11.0161 30.6608V30.5425ZM102.508 15.3071C109.299 15.3071 115.047 18.65 115.047 22.6142C115.047 26.5783 109.299 29.9212 102.508 29.9212C95.7178 29.9212 89.94 26.5783 89.94 22.6142C89.94 18.65 95.6881 15.3071 102.508 15.3071ZM71.4748 10.3075C78.295 10.3075 84.043 13.6504 84.043 17.5258C84.043 21.4012 78.295 24.9217 71.4748 24.9217C64.6546 24.9217 58.9065 21.5787 58.9065 17.5258C58.9065 13.4729 64.6546 10.3075 71.4748 10.3075ZM51.1928 29.9508L57.8939 36.3408L60.8722 39.0329H55.9283L46.2787 29.8621L51.1928 29.9508ZM42.9728 29.9508L52.6224 39.1217H47.6785L38.0289 29.9508H42.9728ZM34.723 29.9508L44.3726 39.1217H39.5776L29.7791 29.9508H34.723ZM26.503 29.9508L36.1228 39.0921H31.1789L22.8696 31.2525C23.8949 30.4216 25.1798 29.9717 26.503 29.9804V29.9508ZM20.8443 35.2758C20.8728 34.52 21.0767 33.7809 21.44 33.1163L27.9028 39.1217H20.8146V36.1633C20.8453 36.027 20.8453 35.8855 20.8146 35.7492C20.8441 35.5932 20.8541 35.4342 20.8443 35.2758ZM31.3576 51.5467H26.5626C25.0747 51.5785 23.6346 51.0236 22.5574 50.0036C21.4802 48.9835 20.8536 47.5811 20.8146 46.1033V41.3404H31.3576V51.5171V51.5467ZM48.2741 51.5467H33.6211V41.3404H48.2146V51.5171L48.2741 51.5467ZM61.1402 46.1329C61.1012 47.6055 60.4787 49.0033 59.4079 50.0226C58.3372 51.0418 56.9048 51.6001 55.422 51.5763H50.5972V41.3404H61.1402V46.1033V46.1329ZM61.1402 36.3408L59.8 35.0688L56.6133 32.1104L54.4689 29.9508H55.422C55.8185 29.9202 56.2168 29.9202 56.6133 29.9508C57.8707 30.1829 59.0086 30.84 59.8337 31.8106C60.6589 32.7813 61.1205 34.0056 61.1402 35.2758V36.1929V36.3408ZM65.4885 38.8258C64.7996 38.5955 64.1236 38.3289 63.4633 38.0271V35.2758C63.4497 33.8175 63.0124 32.394 62.2041 31.1765C61.3958 29.959 60.2507 28.9992 58.9065 28.4125V22.4958C62.3759 25.4988 66.8779 27.0565 71.4748 26.8446C76.0716 27.0565 80.5736 25.4988 84.043 22.4958V28.945C82.8326 28.7437 81.6071 28.6448 80.3798 28.6492C72.0109 28.6492 65.4885 32.8204 65.4885 38.1454C65.4738 38.372 65.4738 38.5993 65.4885 38.8258ZM92.9183 53.0258C92.9183 56.99 87.1702 60.3329 80.3798 60.3329C73.5894 60.3329 67.7817 56.9012 67.7817 53.0258V43.2929C71.2542 46.3138 75.7688 47.8828 80.3798 47.6713C84.5261 47.7937 88.5975 46.5565 91.9652 44.1508C92.3043 43.8785 92.6228 43.5819 92.9183 43.2633V53.0258ZM91.7865 41.1925C91.2962 41.799 90.7251 42.3364 90.0889 42.79C87.2011 44.645 83.8179 45.5934 80.3798 45.5117C76.4593 45.6816 72.6157 44.3949 69.5985 41.9025C68.8696 41.2434 68.3257 40.4075 68.02 39.4767C67.8761 39.068 67.8055 38.6375 67.8115 38.2046C67.8115 34.2404 73.5596 30.8975 80.3798 30.8975C81.6079 30.903 82.8334 31.0119 84.043 31.2229C84.8276 31.3783 85.6031 31.5759 86.3661 31.8146L87.617 32.2879C88.4218 32.6433 89.1983 33.0586 89.94 33.5304C90.7822 34.0095 91.4939 34.6858 92.0129 35.5005C92.532 36.3151 92.8428 37.2434 92.9183 38.2046C92.9109 39.3026 92.5096 40.362 91.7865 41.1925ZM102.627 44.7721C100.135 44.8029 97.6628 44.3299 95.3604 43.3817V38.2342C95.2187 36.6519 94.652 35.1365 93.7195 33.846C92.787 32.5555 91.5229 31.5372 90.0591 30.8975V27.9392C93.5286 30.9422 98.0305 32.4999 102.627 32.2879C107.214 32.4922 111.704 30.9349 115.166 27.9392V33.8558C111.291 34.7365 107.853 36.9469 105.457 40.0979C104.331 41.5826 103.419 43.2155 102.747 44.9496L102.627 44.7721ZM109.12 46.0146C109.056 46.248 109.006 46.4851 108.971 46.7246C108.643 48.5793 108.523 50.4644 108.614 52.3454H103.729C103.548 50.488 103.761 48.6135 104.355 46.8429C104.583 46.057 104.862 45.2863 105.189 44.5354C105.738 43.3506 106.417 42.2295 107.214 41.1925C109.164 38.6282 111.921 36.7851 115.047 35.9562H115.345L115.047 36.1633C112.795 38.0974 111.048 40.5434 109.954 43.2929C109.617 44.1915 109.339 45.1104 109.12 46.0442V46.0146ZM122.165 52.4046H111.056C111.056 51.9313 111.056 51.5171 111.056 51.0733C111.035 48.9964 111.346 46.9293 111.979 44.9496C112.247 44.1141 112.586 43.3026 112.992 42.5237C113.773 40.9453 114.798 39.4979 116.03 38.2342C115.933 38.5651 115.853 38.9009 115.791 39.24C115.651 39.8508 115.601 40.4786 115.642 41.1038C115.628 41.3303 115.628 41.5576 115.642 41.7842V42.0208C116.138 43.8858 117.303 45.5063 118.918 46.5767C119.867 47.2084 120.638 48.0693 121.159 49.0785C121.68 50.0876 121.934 51.2119 121.897 52.3454L122.165 52.4046ZM131.1 52.4046H124.488C124.505 50.9178 124.146 49.4506 123.443 48.1376C122.741 46.8247 121.717 45.7081 120.467 44.8904C119.795 44.4607 119.223 43.8922 118.791 43.2235C118.359 42.5548 118.078 41.8015 117.965 41.015C117.91 39.7667 118.232 38.5306 118.889 37.465C119.276 40.4233 121.569 42.8492 125.917 44.8312C127.491 45.3789 128.85 46.4057 129.802 47.7655C130.754 49.1253 131.25 50.7487 131.219 52.4046H131.1Z" fill="#783CBD"/>
<path d="M102.508 27.111C106.261 27.111 109.18 25.1289 109.18 22.6143C109.18 20.0998 106.201 18.1177 102.508 18.1177C98.8152 18.1177 95.8072 20.0998 95.8072 22.6143C95.8072 25.1289 98.7557 27.111 102.508 27.111ZM102.508 20.3364C105.07 20.3364 106.857 21.5198 106.857 22.6143C106.857 23.7089 105.07 24.8923 102.508 24.8923C99.947 24.8923 98.1302 23.7089 98.1302 22.6143C98.1302 21.5198 99.9172 20.4843 102.508 20.4843V20.3364Z" fill="#783CBD"/>
<path d="M71.4748 22.1114C75.3167 22.1114 78.295 20.1293 78.295 17.526C78.295 14.9226 75.3167 13.0293 71.5939 13.0293C67.8711 13.0293 64.8035 15.1001 64.8035 17.526C64.8035 19.9518 67.7222 22.1114 71.4748 22.1114ZM71.4748 15.3368C74.0659 15.3368 75.8528 16.5201 75.8528 17.6147C75.8528 18.7093 74.0659 19.8926 71.4748 19.8926C68.8837 19.8926 67.0967 18.6797 67.0967 17.526C67.0967 16.3722 68.9135 15.3368 71.4748 15.3368Z" fill="#783CBD"/>
<path d="M85.6513 35.2761C85.0516 34.7736 84.3655 34.3828 83.6261 34.1223C82.5845 33.7544 81.4852 33.5741 80.3798 33.5898C76.6272 33.5898 73.6787 35.5423 73.6787 38.0569C73.6815 38.5484 73.7933 39.0332 74.0063 39.4769C74.4359 40.289 75.0859 40.9654 75.8826 41.4294C77.244 42.1936 78.7865 42.5818 80.35 42.5536C84.1026 42.5536 87.0511 40.6011 87.0511 38.0865C87.0353 37.5455 86.9021 37.0144 86.6605 36.5293C86.4189 36.0442 86.0746 35.6167 85.6513 35.2761ZM80.3798 40.4236H79.6352C78.4519 40.3756 77.3235 39.9147 76.4485 39.1219C76.1885 38.8709 76.0297 38.5343 76.0018 38.1752C76.0018 37.1102 77.7887 35.8973 80.35 35.8973C80.9837 35.8848 81.6159 35.9645 82.2263 36.134C83.0309 36.3015 83.767 36.7031 84.3409 37.2877C84.5705 37.5294 84.7075 37.8435 84.7281 38.1752C84.7281 39.2698 82.9411 40.4531 80.3798 40.4531V40.4236Z" fill="#783CBD"/>
</svg>
