<svg width="70" height="70" viewBox="0 0 70 70" fill="none" xmlns="http://www.w3.org/2000/svg">
<path d="M54.3444 31.3539C57.3495 30.4014 59.9716 28.5126 61.8279 25.9633C63.6842 23.414 64.6774 20.3377 64.6627 17.1835C64.6627 16.8697 64.5381 16.5687 64.3163 16.3467C64.0945 16.1248 63.7937 16.0002 63.48 16.0002C60.3439 15.9857 57.2845 16.9696 54.744 18.8096C52.2036 20.6497 50.3138 23.2505 49.3479 26.236L49.0522 25.8218C48.2858 24.9018 47.3278 24.1603 46.2452 23.6493C45.1625 23.1383 43.9814 22.8701 42.7844 22.8635H13.2192C11.0393 22.8635 8.94877 23.73 7.40738 25.2723C5.866 26.8146 5.00005 28.9065 5.00005 31.0877V42.5956C4.99615 43.6767 5.20607 44.7479 5.61774 45.7474C6.02941 46.747 6.63467 47.6552 7.39867 48.4197C8.16267 49.1841 9.07029 49.7898 10.0692 50.2017C11.0682 50.6136 12.1387 50.8236 13.2192 50.8197H42.7844C43.8649 50.8236 44.9354 50.6136 45.9343 50.2017C46.9333 49.7898 47.8409 49.1841 48.6049 48.4197C49.3689 47.6552 49.9742 46.747 50.3858 45.7474C50.7975 44.7479 51.0074 43.6767 51.0035 42.5956V39.8147C52.3403 41.9214 54.1879 43.6555 56.3746 44.8555C58.5612 46.0555 61.0157 46.6825 63.5096 46.6781C63.8233 46.6781 64.1241 46.5534 64.3458 46.3315C64.5676 46.1096 64.6922 45.8086 64.6922 45.4947C64.6987 42.3419 63.6982 39.2695 61.8368 36.7257C59.9753 34.1819 57.3502 32.2998 54.3444 31.3539ZM16.087 35.1406L25.9618 25.2597H31.047L21.1722 35.1406H16.087ZM22.5914 25.2597L12.7166 35.1406H7.69049L17.5357 25.2597H22.5914ZM34.4174 25.2597H39.4731L29.5983 35.1406H24.5131L34.4174 25.2597ZM42.8435 25.2597C44.239 25.2584 45.5899 25.7509 46.6574 26.6502L38.1722 35.1406H32.9392L42.8435 25.2597ZM48.0174 28.5139C48.4204 29.3228 48.6328 30.2134 48.6383 31.1172V35.1406H41.3653L48.0174 28.5139ZM62.2679 18.426C61.9816 21.3022 60.7091 23.9906 58.6665 26.0345C56.6239 28.0783 53.9371 29.3516 51.0627 29.6381C51.3597 26.7659 52.6357 24.0835 54.6762 22.0417C56.7167 20 59.3974 18.7232 62.2679 18.426ZM13.2192 25.2597H14.1357L7.30614 32.0935V31.1172C7.30614 29.548 7.92912 28.0431 9.03803 26.9335C10.1469 25.8239 11.6509 25.2006 13.2192 25.2006V25.2597ZM7.30614 42.6252V37.5072H18.0974V48.4827H13.2192C11.6714 48.4672 10.1914 47.8452 9.09687 46.75C8.00237 45.6548 7.38067 44.1739 7.36527 42.6252H7.30614ZM20.4627 48.5418V37.5072H35.3931V48.4827L20.4627 48.5418ZM42.6957 48.5418H37.7879V37.5072H48.5792V42.6252C48.5792 44.1944 47.9562 45.6993 46.8473 46.8089C45.7384 47.9185 44.2344 48.5418 42.6661 48.5418H42.6957ZM50.974 33.1289C53.8505 33.4099 56.5403 34.6814 58.5839 36.7264C60.6276 38.7713 61.8984 41.4627 62.1792 44.341C59.3123 44.0234 56.6413 42.7307 54.6126 40.6792C52.5838 38.6277 51.3203 35.9415 51.0331 33.0697L50.974 33.1289Z" fill="#783CBD"/>
</svg>
