<svg width="140" height="140" viewBox="0 0 140 140" fill="none" xmlns="http://www.w3.org/2000/svg">
<path d="M51.4312 92.222H50.897C49.8447 92.222 48.8355 92.6398 48.0913 93.3834C47.3472 94.127 46.9292 95.1355 46.9292 96.187C47.0255 97.225 47.5122 98.1878 48.2911 98.8812C49.07 99.5747 50.0831 99.9471 51.1259 99.9233C52.1855 99.845 53.1717 99.3532 53.8714 98.5542C54.571 97.7552 54.9279 96.7131 54.8648 95.6533C54.7665 94.7771 54.3732 93.9603 53.7493 93.3368C53.1254 92.7134 52.308 92.3203 51.4312 92.222Z" fill="#D72D88"/>
<path d="M88.7461 91.8995H88.212C87.1596 91.8995 86.1504 92.3173 85.4063 93.0609C84.6622 93.8044 84.2441 94.8129 84.2441 95.8645C84.3405 96.9025 84.8272 97.8653 85.606 98.5587C86.3849 99.2522 87.398 99.6246 88.4409 99.6008C89.5005 99.5225 90.4867 99.0307 91.1863 98.2317C91.8859 97.4327 92.2428 96.3906 92.1798 95.3308C92.0815 94.4546 91.6881 93.6378 91.0642 93.0143C90.4403 92.3909 89.6229 91.9978 88.7461 91.8995Z" fill="#D72D88"/>
<path d="M61.3075 121.01L61.689 120.628C63.9583 118.398 67.0139 117.148 70.197 117.148C73.3801 117.148 76.4357 118.398 78.7049 120.628C78.9604 120.954 79.2776 121.226 79.6383 121.429C79.999 121.632 80.3961 121.762 80.8071 121.811C81.2181 121.861 81.6348 121.829 82.0334 121.718C82.4321 121.606 82.8049 121.417 83.1306 121.162C83.4562 120.907 83.7284 120.59 83.9315 120.229C84.1345 119.869 84.2646 119.472 84.3142 119.061C84.3638 118.651 84.332 118.234 84.2205 117.836C84.1091 117.438 83.9202 117.065 83.6647 116.74C83.4986 116.523 83.2911 116.342 83.0543 116.206C79.6244 112.807 74.9894 110.9 70.1588 110.9C65.3282 110.9 60.6933 112.807 57.2634 116.206C56.9432 116.458 56.6767 116.772 56.4798 117.128C56.2828 117.485 56.1594 117.877 56.1167 118.282C56.0741 118.688 56.113 119.097 56.2313 119.487C56.3496 119.877 56.5449 120.239 56.8056 120.552C57.0652 120.886 57.3899 121.163 57.76 121.368C58.13 121.573 58.5378 121.7 58.9586 121.743C59.3794 121.786 59.8045 121.743 60.2083 121.617C60.612 121.491 60.986 121.284 61.3075 121.01Z" fill="#D72D88"/>
<path d="M121.402 83.987C121.18 73.8925 118.122 64.0637 112.577 55.6233C107.031 47.1829 99.222 40.4711 90.041 36.2545C94.6956 31.527 103.471 21.0045 101.944 11.8545C101.508 9.49092 100.452 7.2854 98.8837 5.46342C97.3151 3.64144 95.2905 2.26836 93.0169 1.48453C91.212 0.510177 89.1929 0 87.1414 0C85.09 0 83.0709 0.510177 81.266 1.48453C71.8806 6.97453 68.5995 25.0458 67.6838 31.9845C54.0625 32.8085 41.2874 38.8627 32.0297 48.8812C22.7719 58.8997 17.7485 72.1068 18.0097 85.7408C18.0348 89.8697 18.4952 93.9845 19.3832 98.017C19.3832 98.3983 19.3832 98.7033 19.3832 99.0845C19.3832 99.4658 19.3832 99.0845 19.3832 99.6183C22.1184 110.942 28.5579 121.029 37.6807 128.281C46.8035 135.532 58.0876 139.533 69.7441 139.65C83.7359 139.329 97.0319 133.487 106.726 123.4C116.42 113.312 121.724 99.8004 121.478 85.817C121.478 84.902 121.402 84.4445 121.402 83.987ZM73.3304 31.7558C73.3304 30.7645 73.7119 29.6208 73.9408 28.477C78.0983 28.7915 82.1358 30.0149 85.768 32.0608C85.1575 32.6708 84.6234 33.2808 84.0893 33.7383C80.5869 32.6836 76.9788 32.0188 73.3304 31.7558ZM84.0893 6.36453C85.0917 5.80352 86.2214 5.50893 87.3704 5.50893C88.5193 5.50893 89.649 5.80352 90.6514 6.36453C92.0351 6.80123 93.2789 7.59528 94.257 8.6664C95.2351 9.73752 95.9128 11.0477 96.2217 12.4645C95.9443 18.1868 93.5833 23.6105 89.5832 27.7145C85.2002 25.0593 80.2669 23.4422 75.1617 22.987C76.1642 16.5946 79.3124 10.7328 84.0893 6.36453ZM69.7441 37.322C79.625 37.4875 89.195 40.8017 97.0595 46.7816C104.924 52.7615 110.672 61.0947 113.466 70.567C110.16 67.9975 106.13 66.5306 101.944 66.3733C96.5134 66.6128 91.2449 68.2975 86.6836 71.2533C80.4742 75.3398 72.9855 77.0208 65.6236 75.9808C60.815 75.0682 56.2912 73.03 52.423 70.0333C47.9728 66.3866 42.3828 64.4167 36.628 64.467C34.57 64.6414 32.5688 65.2314 30.7457 66.2013C28.9226 67.1712 27.3155 68.5008 26.0217 70.1095C28.8968 60.7225 34.6797 52.4897 42.5372 46.5974C50.3946 40.7051 59.9211 37.4573 69.7441 37.322ZM69.7441 133.55C59.4412 133.407 49.4801 129.835 41.4368 123.4C33.3936 116.964 27.7274 108.032 25.3349 98.017C23.8134 91.5345 24.4566 84.7325 27.1662 78.6495C30.2947 73.0833 33.5758 70.262 37.0858 70.1095C41.6418 70.0694 46.0491 71.7277 49.4471 74.7608C53.9498 78.1711 59.1675 80.5174 64.708 81.6233C73.3092 82.8833 82.0747 80.9579 89.3543 76.2095C93.0111 73.8299 97.211 72.4135 101.563 72.092C104.887 72.3022 108.051 73.5934 110.573 75.7687C113.094 77.9439 114.834 80.8838 115.527 84.1395C115.527 84.1395 115.527 84.9783 115.527 85.4358C115.814 97.8755 111.158 109.922 102.577 118.939C93.997 127.957 82.1913 133.21 69.7441 133.55Z" fill="#D72D88"/>
</svg>
